HIERARCHY
ROOT Hips
{
	OFFSET 0.0000 0.0000 0.0000
	CHANNELS 6 Xposition Yposition Zposition Zrotation Xrotation Yrotation
	JOINT Ab
	{
		OFFSET -0.0000 8.1305 -0.0000
		CHANNELS 3 Zrotation Xrotation Yrotation
		JOINT Chest
		{
			OFFSET -0.0000 26.2902 -0.0000
			CHANNELS 3 Zrotation Xrotation Yrotation
			JOINT Neck
			{
				OFFSET -0.0000 26.2902 0.0000
				CHANNELS 3 Zrotation Xrotation Yrotation
				JOINT Head
				{
					OFFSET -0.0000 10.8167 0.0000
					CHANNELS 3 Zrotation Xrotation Yrotation
					End Site
					{
						OFFSET -0.0000 16.7167 0.0000
					}
				}
			}
			JOINT LeftCollar
			{
				OFFSET -0.0000 26.2902 0.0000
				CHANNELS 3 Zrotation Xrotation Yrotation
				JOINT LeftShoulder
				{
					OFFSET 19.6667 -0.0000 0.0000
					CHANNELS 3 Zrotation Xrotation Yrotation
					JOINT LeftElbow
					{
						OFFSET 27.2190 0.0000 0.0000
						CHANNELS 3 Zrotation Xrotation Yrotation
						JOINT LeftWrist
						{
							OFFSET 30.7431 0.0000 0.0000
							CHANNELS 3 Zrotation Xrotation Yrotation
							End Site
							{
								OFFSET 0.0000 -14.7500 0.0000
							}
						}
					}
				}
			}
			JOINT RightCollar
			{
				OFFSET -0.0000 26.2902 0.0000
				CHANNELS 3 Zrotation Xrotation Yrotation
				JOINT RightShoulder
				{
					OFFSET -19.6667 0.0000 0.0000
					CHANNELS 3 Zrotation Xrotation Yrotation
					JOINT RightElbow
					{
						OFFSET -27.2190 0.0000 0.0000
						CHANNELS 3 Zrotation Xrotation Yrotation
						JOINT RightWrist
						{
							OFFSET -30.7431 0.0000 0.0000
							CHANNELS 3 Zrotation Xrotation Yrotation
							End Site
							{
								OFFSET -0.0000 -14.7500 0.0000
							}
						}
					}
				}
			}
		}
	}
	JOINT LeftHip
	{
		OFFSET 11.8000 0.0000 0.0000
		CHANNELS 3 Zrotation Xrotation Yrotation
		JOINT LeftKnee
		{
			OFFSET -0.0000 -39.7832 0.0000
			CHANNELS 3 Zrotation Xrotation Yrotation
			JOINT LeftAnkle
			{
				OFFSET -0.0000 -41.7317 0.0000
				CHANNELS 3 Zrotation Xrotation Yrotation
				End Site
				{
					OFFSET -0.0000 -4.9167 16.7167
				}
			}
		}
	}
	JOINT RightHip
	{
		OFFSET -11.8000 0.0000 0.0000
		CHANNELS 3 Zrotation Xrotation Yrotation
		JOINT RightKnee
		{
			OFFSET -0.0000 -39.7832 0.0000
			CHANNELS 3 Zrotation Xrotation Yrotation
			JOINT RightAnkle
			{
				OFFSET -0.0000 -41.7317 0.0000
				CHANNELS 3 Zrotation Xrotation Yrotation
				End Site
				{
					OFFSET -0.0000 -4.9167 16.7167
				}
			}
		}
	}
}
MOTION
Frames: 11
Frame Time: 0.010000
-15.7925 96.9403 179.2806 358.8354 358.7681 178.7418 358.0466 348.1179 0.4106 2.6955 10.4719 0.3708 358.8385 359.2086 359.7019 357.1552 5.7389 359.8538 339.5204 357.4928 13.8915 320.2037 59.4541 337.5486 8.4422 357.5612 327.8970 84.5844 357.1033 346.2269 27.5473 355.9771 343.6430 45.1232 47.8912 4.3636 340.1693 354.5962 30.2140 271.1619 355.7009 8.1652 357.4126 3.5621 359.0189 357.4070 8.3694 0.7673 355.1334 350.3984 19.4562 358.8396 7.3726 9.2784 6.0882 5.4849 7.0436 351.0861 343.4471 318.7726 
-15.8253 96.9354 179.2739 358.8395 358.7466 178.7419 358.0489 348.1129 0.4106 2.6936 10.4829 0.3673 358.8044 359.1705 359.7095 357.1794 5.7825 359.8569 339.5169 357.4865 13.8833 320.1061 59.4143 337.6497 8.4357 357.5563 327.8712 84.6294 357.1083 346.2193 27.5503 355.9523 343.6447 45.1113 47.8874 4.3702 340.1377 354.5781 30.2072 271.1453 355.6858 8.1402 357.3942 3.5215 359.0169 357.4055 8.4168 0.7354 355.2069 350.3746 19.4786 358.8167 7.3515 9.3103 6.1006 5.4927 7.0411 351.0933 343.4384 318.7482 
-15.8586 96.9311 179.2673 358.8430 358.7278 178.7462 358.0491 348.1151 0.4067 2.6858 10.4828 0.3609 358.7671 359.1745 359.7099 357.2329 5.7800 359.8501 339.5181 357.4807 13.8884 320.0951 59.4145 337.6536 8.4431 357.5659 327.8812 84.5770 357.1203 346.1871 27.5811 355.9646 343.6590 45.0926 47.8112 4.3268 340.1914 354.5827 30.2869 271.0812 355.7865 8.0445 357.3777 3.4758 359.0103 357.4002 8.4772 0.7244 355.2315 350.3488 19.4879 358.7978 7.3317 9.2984 6.1027 5.5056 7.0526 351.1175 343.4124 318.7494 
-15.8935 96.9261 179.2588 358.8505 358.7106 178.7520 358.0569 348.1202 0.3969 2.6696 10.4762 0.3572 358.7401 359.1972 359.7120 357.2842 5.7632 359.8506 339.5172 357.4726 13.8948 320.0923 59.4133 337.6655 8.4399 357.5724 327.8415 85.0556 357.1985 346.4455 27.5899 355.9595 343.6598 45.0939 47.8173 4.3165 340.1665 354.5686 30.3021 271.0484 355.8439 7.9082 357.3658 3.4357 358.9855 357.3880 8.5299 0.7161 355.2458 350.3109 19.5083 358.7817 7.3144 9.2883 6.1062 5.5182 7.0263 351.1369 343.3946 318.7764 
-15.9268 96.9209 179.2507 358.8611 358.6899 178.7484 358.0594 348.1168 0.3970 2.6651 10.4843 0.3614 358.7308 359.2010 359.7077 357.2863 5.7589 359.8536 339.5124 357.4778 13.9167 320.1480 59.4145 337.6000 8.3938 357.5685 327.8540 85.2055 357.2035 346.4966 27.5922 355.9588 343.6633 45.1048 47.8203 4.3000 340.1623 354.5835 30.2975 271.1059 355.8144 7.9664 357.3584 3.3915 358.9820 357.3751 8.5899 0.6907 355.2733 350.2827 19.5414 358.7685 7.2924 9.3057 6.1119 5.5313 7.0292 351.1137 343.3949 318.7590 
-15.9619 96.9156 179.2421 358.8744 358.6736 178.7493 358.0647 348.1217 0.3997 2.6643 10.4868 0.3536 358.7012 359.2094 359.7072 357.3144 5.7458 359.8524 339.5042 357.4660 13.9358 320.1893 59.4311 337.5468 8.4132 357.5660 327.8834 85.2003 357.1866 346.5322 27.5982 355.9713 343.6671 45.1148 47.8151 4.2809 340.1702 354.5766 30.2953 271.1067 355.8113 7.9617 357.3539 3.3521 358.9605 357.3572 8.6440 0.6920 355.2268 350.2450 19.5638 358.7602 7.2737 9.2674 6.1071 5.5502 7.0508 351.1417 343.3564 318.7761 
-16.0030 96.9109 179.2318 358.8767 358.6604 178.7471 358.0629 348.1283 0.3976 2.6597 10.4913 0.3563 358.6725 359.2216 359.7043 357.3493 5.7282 359.8445 339.4955 357.4775 13.9410 320.2142 59.4266 337.5293 8.3750 357.5733 327.9002 85.0128 357.1679 346.4067 27.6014 355.9744 343.6701 45.1276 47.7957 4.2638 340.1490 354.5813 30.2878 271.1279 355.7776 7.9911 357.3307 3.3129 358.9298 357.3444 8.7074 0.6919 355.2975 350.2114 19.5965 358.7309 7.2561 9.2573 6.1167 5.5723 7.0630 351.1583 343.3360 318.7656 
-16.0450 96.9051 179.2191 358.8807 358.6474 178.7451 358.0628 348.1304 0.3972 2.6515 10.5047 0.3567 358.6465 359.1940 359.7123 357.3757 5.7611 359.8524 339.4924 357.4678 13.9480 320.2326 59.4505 337.5053 8.4270 357.5528 327.8839 85.1752 357.2771 346.6648 27.6070 355.9821 343.6836 45.1526 47.7803 4.2235 340.1627 354.5793 30.2935 271.1215 355.7692 8.0244 357.3090 3.2776 358.9123 357.3358 8.7661 0.6736 355.3683 350.1831 19.6283 358.7039 7.2431 9.2607 6.1245 5.5861 7.0467 351.2082 343.3020 318.7738 
-16.0882 96.8993 179.2098 358.8876 358.6273 178.7379 358.0683 348.1312 0.3998 2.6438 10.5227 0.3619 358.6251 359.1667 359.7089 357.3880 5.7744 359.8523 339.4888 357.4622 13.9374 320.1836 59.4219 337.5615 8.4396 357.5610 327.8708 85.1925 357.2062 346.6084 27.6026 355.9735 343.6859 45.1786 47.7943 4.2101 340.0952 354.5493 30.3015 271.3814 355.6310 7.6187 357.2860 3.2312 358.9101 357.3305 8.8311 0.6689 355.4279 350.1567 19.6370 358.6805 7.2176 9.2782 6.1295 5.6053 7.0222 351.2486 343.2688 318.7860 
-16.1359 96.8941 179.2008 358.8908 358.6041 178.7328 358.0852 348.1285 0.3976 2.6122 10.5440 0.3593 358.5853 359.1522 359.7099 357.4340 5.7689 359.8513 339.4934 357.4766 13.9419 320.1813 59.3967 337.5596 8.4266 357.5743 327.8459 85.3290 357.2354 346.6865 27.6144 355.9639 343.6944 45.1885 47.8042 4.1829 340.0884 354.5336 30.3071 271.5103 355.6848 7.7416 357.2554 3.1780 358.8999 357.3294 8.8987 0.6600 355.4042 350.1176 19.6632 358.6470 7.1816 9.2692 6.1406 5.6416 7.0275 351.2383 343.2567 318.7998 
-16.1820 96.8879 179.1919 358.9007 358.5821 178.7291 358.0881 348.1229 0.3982 2.6092 10.5752 0.3574 358.5474 359.1576 359.7152 357.4669 5.7326 359.8514 339.4874 357.4714 13.9469 320.1875 59.3809 337.5498 8.4430 357.5658 327.8469 85.2685 357.2005 346.6192 27.6220 355.9777 343.7137 45.1839 47.7578 4.1697 340.1111 354.5539 30.3273 271.5598 355.6978 7.8150 357.2365 3.1262 358.8706 357.3185 8.9685 0.6531 355.4609 350.0775 19.6922 358.6266 7.1426 9.2325 6.1418 5.6865 7.0529 351.2518 343.2283 318.8102 
